name Run_400 02_newCOP3_v24.mot
datacolumns 19
datarows 86
range 0.09 0.175
DataType=double
version=3
OpenSimVersion=4.3-2021-08-27-4bc7ad9
endheader
time	R_ground_force_vx	R_ground_force_vy	R_ground_force_vz	R_ground_force_px	R_ground_force_py	R_ground_force_pz	L_ground_force_vx	L_ground_force_vy	L_ground_force_vz	L_ground_force_px	L_ground_force_py	L_ground_force_pz	R_ground_torque_x	R_ground_torque_y	R_ground_torque_z	L_ground_torque_x	L_ground_torque_y	L_ground_torque_z
0.09	3.336528	59.893368	-4.831001	1.047035	0	-0.284123	0	0	0	0	0	0	-0	0.300674	-0	0	0	0
0.091	4.809906	80.320412	-6.249855	1.041137	0	-0.281127	0	0	0	0	0	0	-0	0.322218	-0	0	0	0
0.092	6.342375	101.944794	-7.707681	1.038147	0	-0.279529	0	0	0	0	0	0	-0	0.354154	-0	0	0	0
0.093	7.929946	124.850151	-9.194121000000001	1.036392	0	-0.278524	0	0	0	0	0	0	-0	0.397246	-0	0	0	0
0.094	9.567520999999999	149.13533	-10.697632	1.035275	0	-0.277828	0	0	0	0	0	0	-0	0.45217	-0	0	0	0
0.095	11.247568	174.900681	-12.204409	1.03453	0	-0.277313	0	0	0	0	0	0	-0	0.519498	-0	0	0	0
0.096	12.95914	202.238144	-13.697603	1.034022	0	-0.276914	0	0	0	0	0	0	-0	0.599683	-0	0	0	0
0.097	14.687155	231.223801	-15.156744	1.033673	0	-0.276593	0	0	0	0	0	0	-0	0.693042	-0	0	0	0
0.098	16.411915	261.911835	-16.557369	1.033436	0	-0.276328	0	0	0	0	0	0	-0	0.799748	-0	0	0	0
0.099	18.108845	294.329681	-17.87084	1.033281	0	-0.276104	0	0	0	0	0	0	-0	0.919811	-0	0	0	0
0.1	19.748446	328.473999	-19.064384	1.033188	0	-0.275911	0	0	0	0	0	0	-0	1.053073	-0	0	0	0
0.101	21.296467	364.307434	-20.101336	1.033143	0	-0.275743	0	0	0	0	0	0	-0	1.199199	-0	0	0	0
0.102	22.714272	401.756256	-20.941624	1.033135	0	-0.275594	0	0	0	0	0	0	-0	1.357672	-0	0	0	0
0.103	23.959433	440.708771	-21.542521	1.033158	0	-0.275461	0	0	0	0	0	0	-0	1.527788	-0	0	0	0
0.104	24.986465	481.014832	-21.859608	1.033205	0	-0.275341	0	0	0	0	0	0	-0	1.708661	-0	0	0	0
0.105	25.747749	522.486267	-21.848005	1.033273	0	-0.275233	0	0	0	0	0	0	-0	1.899219	-0	0	0	0
0.106	26.19455	564.898499	-21.463821	1.033358	0	-0.275133	0	0	0	0	0	0	-0	2.098214	-0	0	0	0
0.107	26.278126	607.993286	-20.665783	1.033458	0	-0.275042	0	0	0	0	0	0	-0	2.30423	-0	0	0	0
0.108	25.950882	651.482544	-19.417002	1.033569	0	-0.274958	0	0	0	0	0	0	-0	2.515692	-0	0	0	0
0.109	25.167522	695.053162	-17.686831	1.033692	0	-0.27488	0	0	0	0	0	0	-0	2.730882	-0	0	0	0
0.11	23.886166	738.372986	-15.452713	1.033824	0	-0.274807	0	0	0	0	0	0	-0	2.94795	-0	0	0	0
0.111	22.069405	781.09729	-12.701946	1.033964	0	-0.274739	0	0	0	0	0	0	-0	3.16494	-0	0	0	0
0.112	19.685249	822.875977	-9.433275	1.034111	0	-0.274675	0	0	0	0	0	0	-0	3.379806	-0	0	0	0
0.113	16.707987	863.361206	-5.658218	1.034263	0	-0.274616	0	0	0	0	0	0	-0	3.590433	-0	0	0	0
0.114	13.118891	902.215088	-1.40204	1.034421	0	-0.274559	0	0	0	0	0	0	-0	3.794666	-0	0	0	0
0.115	8.906794	939.116943	3.295702	1.034582	0	-0.274506	0	0	0	0	0	0	-0	3.990331	-0	0	0	0
0.116	4.068526	973.770569	8.381097	1.034747	0	-0.274456	0	0	0	0	0	0	-0	4.175262	-0	0	0	0
0.117	-1.39081	1005.91095	13.786344	1.034912	0	-0.274409	0	0	0	0	0	0	-0	4.347331	-0	0	0	0
0.118	-7.457714	1035.309448	19.430735	1.035078	0	-0.274364	0	0	0	0	0	0	-0	4.504467	-0	0	0	0
0.119	-14.110327	1061.779419	25.222168	1.035242	0	-0.27432	0	0	0	0	0	0	-0	4.644692	-0	0	0	0
0.12	-21.31864	1085.179199	31.059114	1.035403	0	-0.274279	0	0	0	0	0	0	-0	4.766143	-0	0	0	0
0.121	-29.044874	1105.415405	36.832993	1.035559	0	-0.274239	0	0	0	0	0	0	-0	4.867095	-0	0	0	0
0.122	-37.244045	1122.444092	42.430862	1.035707	0	-0.2742	0	0	0	0	0	0	-0	4.945985	-0	0	0	0
0.123	-45.8647	1136.271362	47.738316	1.035845	0	-0.274163	0	0	0	0	0	0	-0	5.00144	-0	0	0	0
0.124	-54.849831	1146.953003	52.642479	1.035969	0	-0.274125	0	0	0	0	0	0	-0	5.032289	-0	0	0	0
0.125	-64.13793200000001	1154.592285	57.035011	1.036077	0	-0.274088	0	0	0	0	0	0	-0	5.037585	-0	0	0	0
0.126	-73.664185	1159.337646	60.81496	1.036163	0	-0.27405	0	0	0	0	0	0	-0	5.016618	-0	0	0	0
0.127	-83.361778	1161.37854	63.891441	1.036224	0	-0.274012	0	0	0	0	0	0	-0	4.96893	-0	0	0	0
0.128	-93.163162	1160.94165	66.185982	1.036255	0	-0.273971	0	0	0	0	0	0	-0	4.894318	-0	0	0	0
0.129	-103.001419	1158.2854	67.63454400000001	1.03625	0	-0.273929	0	0	0	0	0	0	-0	4.792845	-0	0	0	0
0.13	-112.811493	1153.693848	68.189117	1.036204	0	-0.273884	0	0	0	0	0	0	-0	4.664841	-0	0	0	0
0.131	-122.531288	1147.470703	67.818871	1.03611	0	-0.273836	0	0	0	0	0	0	-0	4.510898	-0	0	0	0
0.132	-132.102631	1139.933228	66.51084899999999	1.035961	0	-0.273782	0	0	0	0	0	0	-0	4.331869	-0	0	0	0
0.133	-141.471954	1131.405029	64.27027099999999	1.035751	0	-0.273724	0	0	0	0	0	0	-0	4.128859	-0	0	0	0
0.134	-150.59082	1122.209717	61.120312	1.03547	0	-0.27366	0	0	0	0	0	0	-0	3.903211	-0	0	0	0
0.135	-159.416138	1112.664917	57.101517	1.035112	0	-0.273588	0	0	0	0	0	0	-0	3.656494	-0	0	0	0
0.136	-167.910095	1103.07666	52.270832	1.034668	0	-0.273508	0	0	0	0	0	0	-0	3.390483	-0	0	0	0
0.137	-176.039963	1093.733765	46.700283	1.03413	0	-0.27342	0	0	0	0	0	0	-0	3.10714	-0	0	0	0
0.138	-183.77771	1084.904053	40.475319	1.03349	0	-0.273321	0	0	0	0	0	0	-0	2.808589	-0	0	0	0
0.139	-191.099442	1076.8302	33.692917	1.032739	0	-0.273211	0	0	0	0	0	0	-0	2.497092	-0	0	0	0
0.14	-197.984924	1069.727783	26.459427	1.031869	0	-0.27309	0	0	0	0	0	0	-0	2.175021	-0	0	0	0
0.141	-204.416931	1063.782837	18.888269	1.030873	0	-0.272956	0	0	0	0	0	0	-0	1.844831	-0	0	0	0
0.142	-210.380936	1059.151001	11.097464	1.029745	0	-0.272808	0	0	0	0	0	0	-0	1.509027	-0	0	0	0
0.143	-215.864685	1055.957642	3.207077	1.028477	0	-0.272647	0	0	0	0	0	0	-0	1.170141	-0	0	0	0
0.144	-220.858078	1054.297607	-4.663349	1.027067	0	-0.272472	0	0	0	0	0	0	-0	0.830693	-0	0	0	0
0.145	-225.353149	1054.236694	-12.397367	1.025509	0	-0.272283	0	0	0	0	0	0	-0	0.493168	-0	0	0	0
0.146	-229.344269	1055.812378	-19.884098	1.023802	0	-0.272079	0	0	0	0	0	0	-0	0.159987	-0	0	0	0
0.147	-232.828384	1059.036133	-27.020594	1.021945	0	-0.271862	0	0	0	0	0	0	0	-0.166527	0	0	0	0
0.148	-235.805405	1063.894897	-33.71397	1.019939	0	-0.271631	0	0	0	0	0	0	0	-0.484168	0	0	0	0
0.149	-238.278534	1070.353271	-39.883316	1.017786	0	-0.271388	0	0	0	0	0	0	0	-0.790873	0	0	0	0
0.15	-240.254669	1078.355103	-45.461285	1.01549	0	-0.271133	0	0	0	0	0	0	0	-1.084747	0	0	0	0
0.151	-241.744629	1087.826294	-50.39534	1.013057	0	-0.270868	0	0	0	0	0	0	0	-1.364078	0	0	0	0
0.152	-242.763107	1098.676514	-54.648598	1.010494	0	-0.270594	0	0	0	0	0	0	0	-1.627356	0	0	0	0
0.153	-243.328751	1110.801392	-58.200268	1.00781	0	-0.270312	0	0	0	0	0	0	0	-1.873283	0	0	0	0
0.154	-243.463638	1124.084473	-61.045647	1.005014	0	-0.270025	0	0	0	0	0	0	0	-2.100789	0	0	0	0
0.155	-243.192932	1138.399902	-63.195713	1.002117	0	-0.269733	0	0	0	0	0	0	0	-2.309032	0	0	0	0
0.156	-242.544083	1153.614136	-64.676247	0.99913	0	-0.26944	0	0	0	0	0	0	0	-2.497409	0	0	0	0
0.157	-241.546021	1169.588257	-65.526634	0.9960639999999999	0	-0.269147	0	0	0	0	0	0	0	-2.665548	0	0	0	0
0.158	-240.228226	1186.180176	-65.798271	0.992931	0	-0.268856	0	0	0	0	0	0	0	-2.813313	0	0	0	0
0.159	-238.619858	1203.247192	-65.552689	0.989743	0	-0.268568	0	0	0	0	0	0	0	-2.940794	0	0	0	0
0.16	-236.74881	1220.647461	-64.85953499999999	0.98651	0	-0.268285	0	0	0	0	0	0	0	-3.048298	0	0	0	0
0.161	-234.640945	1238.242676	-63.79427	0.983245	0	-0.268009	0	0	0	0	0	0	0	-3.136341	0	0	0	0
0.162	-232.319504	1255.89978	-62.43594	0.979957	0	-0.267741	0	0	0	0	0	0	0	-3.205633	0	0	0	0
0.163	-229.804611	1273.492798	-60.864864	0.976654	0	-0.267483	0	0	0	0	0	0	0	-3.25706	0	0	0	0
0.164	-227.113098	1290.904541	-59.160423	0.973346	0	-0.267236	0	0	0	0	0	0	0	-3.291669	0	0	0	0
0.165	-224.258514	1308.027466	-57.399029	0.97004	0	-0.266999	0	0	0	0	0	0	0	-3.310649	0	0	0	0
0.166	-221.251312	1324.765259	-55.652245	0.966742	0	-0.266775	0	0	0	0	0	0	0	-3.31531	0	0	0	0
0.167	-218.099228	1341.033325	-53.985222	0.963458	0	-0.266563	0	0	0	0	0	0	0	-3.307064	0	0	0	0
0.168	-214.807816	1356.759155	-52.455357	0.960191	0	-0.266364	0	0	0	0	0	0	0	-3.2874	0	0	0	0
0.169	-211.381119	1371.88269	-51.111298	0.956945	0	-0.266178	0	0	0	0	0	0	0	-3.257867	0	0	0	0
0.17	-207.822235	1386.355835	-49.992249	0.953722	0	-0.266005	0	0	0	0	0	0	0	-3.220049	0	0	0	0
0.171	-204.134018	1400.142456	-49.127575	0.950524	0	-0.265844	0	0	0	0	0	0	0	-3.175546	0	0	0	0
0.172	-200.319672	1413.217407	-48.536732	0.947352	0	-0.265696	0	0	0	0	0	0	0	-3.125955	0	0	0	0
0.173	-196.383179	1425.566162	-48.22942	0.944206	0	-0.26556	0	0	0	0	0	0	0	-3.072849	0	0	0	0
0.174	-192.329742	1437.183472	-48.206036	0.941086	0	-0.265435	0	0	0	0	0	0	0	-3.01776	0	0	0	0
0.175	-188.165909	1448.072876	-48.458286	0.937991	0	-0.265321	0	0	0	0	0	0	0	-2.962161	0	0	0	0
